<svg xmlns="http://www.w3.org/2000/svg" xml:space="preserve" width="914" height="914" style="enable-background:new 0 0 0 0">
  <path fill="#FFFFFF" d="M18.5 473.5a52.3 52.3 0 0 0 74-6 322 322 0 0 1 144-99.5 242.4 242.4 0 0 1 72-13.6h425.7l-41.7 42.2a52.5 52.5 0 1 0 74.7 73.8l131.7-133.3a52.5 52.5 0 0 0-.5-74.2L767 132.9a52.5 52.5 0 1 0-73.8 74.8l42.2 41.7H310.5c-16.9-.2-171.7 1.6-298 150.1a52.5 52.5 0 0 0 6 74z"/>
  <path fill="#FFFFFF" d="M147 781a52.3 52.3 0 0 0 74.3-.4 52.5 52.5 0 0 0-.4-74.2l-42.3-41.8h426.9c24.4 0 173.6-6.1 296-150a52.5 52.5 0 0 0-80-68.1 322 322 0 0 1-144 99.6 243.8 243.8 0 0 1-71.8 13.5H179.8l41.6-42.2a52.5 52.5 0 0 0-74.7-73.8L15.2 577a52.5 52.5 0 0 0 .4 74.3L147.1 781z"/>
</svg>
